<svg width="1510" height="317" viewBox="0 0 1510 317" fill="none" xmlns="http://www.w3.org/2000/svg">
<path d="M455.234 0.957516C453.434 1.65752 449.334 5.75752 449.234 6.95752C449.034 8.15752 440.334 15.9575 439.134 15.9575C438.434 15.9575 437.534 16.4575 437.234 16.9575C436.834 17.5575 436.234 17.7575 435.734 17.4575C434.634 16.7575 425.734 25.1575 425.734 26.7575C425.734 28.7575 428.234 28.1575 430.634 25.5575C432.534 23.4575 433.734 23.2575 441.234 23.1575C449.334 23.1575 450.034 22.9575 455.834 19.3575C462.334 15.2575 465.734 9.85752 464.134 6.15752C463.734 5.25752 463.534 3.95752 463.634 3.35752C463.734 2.45752 458.134 -0.442484 457.334 0.0575161C457.234 0.0575161 456.334 0.457516 455.234 0.957516ZM457.334 9.45752C459.234 10.9575 459.234 10.9575 457.234 12.4575C456.134 13.3575 454.434 14.6575 453.434 15.4575C451.434 17.1575 448.134 17.4575 447.234 15.9575C446.334 14.4575 449.434 10.0575 452.034 8.95752C455.034 7.75752 455.134 7.75752 457.334 9.45752Z" fill="white"/>
<path d="M620.634 16.6575C619.234 17.3575 615.734 20.4575 612.834 23.4575C608.734 27.8575 606.934 29.0575 604.834 28.8575C603.434 28.7575 601.334 29.0575 600.234 29.4575C597.734 30.4575 588.934 39.6575 588.134 42.1575C587.634 43.9575 587.734 44.0575 589.934 42.9575C591.134 42.2575 592.934 40.9575 593.734 39.9575C594.534 38.9575 597.234 37.4575 599.634 36.6575C603.334 35.4575 604.434 35.4575 606.634 36.5575C609.734 38.1575 614.334 38.3575 615.234 36.9575C615.534 36.3575 616.734 35.9575 617.734 35.9575C621.034 35.9575 624.134 33.9575 627.534 29.5575C631.134 24.7575 631.534 21.4575 628.934 18.3575C626.634 15.6575 623.834 15.0575 620.634 16.6575ZM624.234 24.9575C625.234 26.5575 620.934 29.9575 617.634 29.9575C615.334 29.9575 614.634 29.5575 614.934 28.2575C615.534 25.2575 622.834 22.6575 624.234 24.9575Z" fill="white"/>
<path d="M524.034 21.1575C521.434 24.4575 521.634 26.8575 524.634 30.0575C526.334 31.8575 527.734 34.0575 527.734 35.0575C527.734 36.0575 528.234 37.1575 528.734 37.4575C529.334 37.7575 529.734 39.5575 529.734 41.4575C529.734 43.3575 530.134 45.0575 530.634 45.3575C531.834 46.1575 533.534 54.7575 534.234 63.2575C534.834 71.1575 535.734 69.9575 535.734 61.3575C535.734 56.6575 534.734 48.4575 533.234 41.4575C530.134 26.6575 530.234 26.9575 527.334 23.1575C525.534 20.6575 524.734 20.2575 524.034 21.1575Z" fill="white"/>
<path d="M388.234 26.9575C387.834 27.5575 387.234 27.7575 386.734 27.4575C386.334 27.1575 385.434 27.6575 384.734 28.4575C384.034 29.2575 382.934 29.9575 382.134 29.9575C381.434 29.9575 380.134 30.6575 379.234 31.6575C378.334 32.5575 374.734 34.5575 371.434 36.1575C364.534 39.3575 357.734 45.3575 357.734 48.1575C357.734 50.6575 359.434 50.4575 363.334 47.4575C365.134 46.0575 367.034 44.9575 367.534 44.9575C368.034 44.9575 369.234 44.0575 370.334 42.8575C372.934 39.9575 380.534 34.9575 382.334 34.9575C383.034 34.9575 383.734 34.4575 383.734 33.9575C383.734 33.3575 384.834 32.9575 386.234 32.9575C388.634 32.9575 390.734 30.4575 390.734 27.5575C390.734 25.7575 389.134 25.4575 388.234 26.9575Z" fill="white"/>
<path d="M402.434 34.4575C400.134 39.0575 398.634 43.9575 398.334 47.2575C398.034 50.0575 397.534 54.3575 397.234 56.6575C396.434 60.9575 399.034 70.9575 400.834 70.9575C401.334 70.9575 401.734 71.5575 401.734 72.3575C401.734 73.0575 403.034 74.7575 404.534 76.0575C407.834 78.9575 409.334 82.1575 410.234 88.0575C410.534 90.4575 411.034 93.7575 411.234 95.4575C413.634 110.957 414.634 119.657 414.234 120.657C414.034 121.357 414.234 122.157 414.734 122.457C415.234 122.757 415.634 124.857 415.634 127.257C415.634 129.557 415.734 132.457 415.734 133.657C415.734 134.857 416.234 136.157 416.834 136.457C417.534 136.957 417.434 137.557 416.734 138.457C416.034 139.257 415.934 140.457 416.434 141.157C416.834 141.857 417.234 145.257 417.334 148.757C417.434 152.157 417.734 155.257 418.034 155.557C418.634 156.257 415.634 164.257 414.334 165.157C412.634 166.357 396.934 168.157 394.534 167.457C389.234 165.957 385.634 163.657 384.334 161.057C383.534 159.557 382.234 157.757 381.434 157.057C379.834 155.857 379.034 158.257 376.834 170.957C375.934 176.257 375.934 176.657 379.234 181.657C381.134 184.457 383.534 187.057 384.734 187.457C387.134 188.257 387.134 188.657 385.234 193.257C384.434 195.157 384.034 196.957 384.334 197.157C385.534 198.457 376.134 211.257 368.234 218.857C365.734 221.357 363.734 223.757 363.734 224.157C363.734 224.557 363.234 224.957 362.634 224.957C362.034 224.957 360.334 225.857 358.834 226.957C351.934 231.757 330.134 234.857 323.234 231.857C320.334 230.557 319.334 230.257 317.134 230.057C316.534 230.057 314.234 228.357 311.934 226.357C309.634 224.457 307.734 223.357 307.734 224.057C307.734 225.657 315.634 232.957 317.434 232.957C318.134 232.957 318.734 233.257 318.734 233.657C318.734 235.457 327.134 238.057 340.634 240.457C357.834 243.557 361.034 243.157 368.334 236.957C372.834 233.157 379.734 224.357 379.734 222.557C379.734 221.657 380.034 220.957 380.534 220.957C380.934 220.957 382.034 218.857 383.034 216.157C384.134 213.557 385.334 210.557 385.834 209.457C386.334 208.357 387.334 204.757 388.134 201.457C389.934 193.857 392.534 187.757 393.634 188.457C394.134 188.757 394.834 188.357 395.034 187.757C395.434 186.757 395.634 186.757 395.634 187.757C395.734 188.557 396.234 188.757 396.934 188.357C397.634 187.957 399.734 187.457 401.634 187.257C406.734 186.657 408.334 185.457 411.234 179.757C412.634 176.857 414.734 172.857 415.734 170.957C417.434 167.857 419.434 163.257 421.734 157.457C425.334 148.157 425.634 131.757 422.634 108.857C420.134 90.5575 420.134 91.4575 425.734 75.6575C428.234 68.4575 428.434 68.6575 416.234 60.6575C405.834 53.8575 403.234 50.2575 404.034 43.5575C404.434 39.9575 405.134 36.5575 405.734 34.9575C405.834 34.6575 405.934 34.1575 405.834 33.6575C405.834 33.2575 406.234 32.9575 406.834 32.9575C407.434 32.9575 407.734 32.3575 407.434 31.6575C407.234 31.0575 407.434 29.6575 407.934 28.6575C408.534 27.4575 408.434 26.9575 407.434 26.9575C406.634 26.9575 404.334 30.3575 402.434 34.4575Z" fill="white"/>
<path d="M155.335 35.3576C153.635 38.9576 152.735 42.5576 152.735 45.6576C152.735 48.3576 152.335 50.9576 151.835 51.4576C151.035 52.3576 150.335 58.7576 150.635 62.6576C150.735 63.3576 152.735 66.2576 155.135 69.2576C158.035 72.8576 159.835 76.3576 160.735 80.0576C161.435 83.0576 162.635 87.4576 163.435 89.9576C164.235 92.4576 165.335 99.3576 165.735 105.458C166.235 111.458 167.335 123.158 168.235 131.458C171.035 158.058 170.535 161.358 163.835 164.458C160.735 165.758 158.635 165.958 153.135 165.458C143.735 164.458 142.435 163.758 140.235 159.058C139.235 156.758 137.835 154.958 137.235 154.958C135.735 154.958 133.035 164.158 132.135 172.258C131.335 179.358 133.435 184.158 138.535 186.558C140.335 187.358 142.035 188.658 142.335 189.358C142.835 190.558 139.235 201.458 137.735 203.458C136.335 205.358 130.735 215.958 131.235 215.958C131.435 215.958 127.935 219.658 123.435 224.258C114.135 233.658 106.235 238.158 95.1347 240.558C85.3347 242.558 69.9347 240.358 65.1347 236.258C61.9347 233.558 61.0347 233.358 61.0347 235.558C61.0347 237.558 70.9347 244.358 75.5347 245.458C76.4347 245.758 79.0347 246.358 81.2347 246.958C86.2347 248.158 97.4347 250.158 107.535 251.558C112.535 252.258 117.035 250.758 119.635 247.358C120.635 246.058 121.735 245.258 121.935 245.558C122.735 246.358 133.335 231.958 135.635 226.858C137.735 222.458 138.535 219.758 139.235 215.158C139.435 213.858 140.035 212.258 140.635 211.558C141.235 210.858 141.435 209.958 141.035 209.658C140.735 209.258 140.935 208.958 141.635 208.958C142.435 208.958 142.735 208.358 142.335 207.358C141.935 206.458 142.235 205.058 142.835 204.358C143.435 203.658 144.135 200.858 144.435 198.258C145.135 190.658 146.635 188.358 150.535 188.758C152.235 188.958 153.735 188.658 153.735 188.158C153.735 187.658 155.035 187.258 156.635 187.258C158.235 187.258 160.235 186.558 161.235 185.658C162.135 184.758 163.335 183.658 164.035 183.258C165.335 182.458 170.935 174.158 170.535 173.758C170.335 173.558 171.035 172.358 171.935 171.058C172.835 169.758 173.335 168.158 173.035 167.358C172.835 166.658 173.235 164.758 174.035 163.258C177.435 156.658 180.135 140.558 179.235 132.158C178.935 130.158 178.535 125.758 178.335 122.458C178.035 119.158 177.335 113.758 176.835 110.458C175.135 100.958 175.535 89.8576 178.135 72.1576C178.935 66.8576 176.135 62.7576 167.135 55.9576C162.235 52.2576 158.435 48.5576 158.135 47.2576C157.535 45.0576 157.835 42.4576 159.335 33.6576C160.235 28.1576 158.335 29.0576 155.335 35.3576Z" fill="white"/>
<path d="M138.135 32.3576C137.035 33.0576 134.235 34.6576 131.735 36.0576C129.235 37.3576 125.635 39.6576 123.735 41.0576C121.735 42.5576 118.535 44.5576 116.435 45.5576C114.435 46.5576 112.735 47.6576 112.735 48.0576C112.735 48.4576 111.635 49.0576 110.235 49.3576C107.635 50.0576 104.235 55.2576 105.235 57.0576C106.035 58.2576 109.935 57.1576 111.035 55.3576C111.435 54.5576 112.235 53.9576 112.835 53.9576C113.335 53.9576 114.735 53.0576 115.935 51.9576C117.035 50.9576 119.535 49.3576 121.335 48.4576C123.235 47.5576 124.735 46.2576 124.735 45.4576C124.735 44.6576 125.435 43.9576 126.435 43.9576C127.335 43.9576 129.535 42.8576 131.335 41.4576C133.135 40.0576 135.235 38.9576 135.935 38.9576C137.735 38.8576 141.335 35.8576 142.035 33.7576C142.835 31.5576 140.435 30.7576 138.135 32.3576Z" fill="white"/>
<path d="M194.434 37.6576C194.134 38.1576 193.434 41.3576 192.734 44.9576C192.134 48.5576 191.134 53.0576 190.534 55.0576C189.734 57.7576 189.934 60.4576 191.234 66.5576C192.234 70.8576 193.434 75.3576 194.034 76.4576C195.634 79.5576 198.734 98.3576 199.334 108.958C199.634 114.158 200.134 119.158 200.434 119.958C202.134 124.158 202.034 141.658 200.334 149.458C199.434 153.258 198.734 157.358 198.734 158.458C198.734 160.158 198.934 160.258 200.234 158.858C201.134 158.058 202.034 156.258 202.234 154.858C202.534 153.558 203.134 151.358 203.634 149.958C209.034 135.658 210.234 129.458 210.134 116.458C210.034 103.258 208.334 90.8576 204.634 76.4576C203.534 72.0576 202.534 67.9576 202.434 67.4576C202.234 66.8576 201.834 65.8576 201.434 65.1576C200.934 64.4576 200.434 62.1576 200.234 59.8576C199.934 57.6576 199.434 55.3576 199.034 54.7576C198.234 53.3576 197.934 51.6576 197.334 43.4576C196.934 38.0576 195.734 35.5576 194.434 37.6576Z" fill="white"/>
<path d="M239.135 44.0575C238.635 44.8575 238.435 46.3575 238.635 47.4575C238.935 49.6575 245.735 61.2575 247.035 61.7575C247.435 61.9575 247.735 62.7575 247.735 63.5575C247.735 64.3575 248.135 64.9575 248.735 64.9575C250.535 64.9575 256.935 80.3575 258.235 87.8575C259.335 94.0575 259.335 95.8575 258.135 99.2575C256.435 104.158 256.935 105.058 259.335 101.358C261.435 98.2575 262.235 82.3575 260.535 80.1575C259.935 79.5575 259.735 78.9575 260.135 78.9575C260.435 78.9575 259.835 77.5575 258.835 75.8575C257.735 74.0575 257.135 72.1575 257.435 71.4575C257.835 70.2575 253.035 61.8575 251.535 61.1575C251.135 60.9575 251.135 60.1575 251.435 59.3575C251.735 58.5575 251.535 57.9575 250.935 57.9575C250.435 57.9575 249.735 57.1575 249.435 56.1575C248.635 53.5575 245.535 48.8575 242.635 45.6575C240.535 43.3575 239.835 43.0575 239.135 44.0575Z" fill="white"/>
<path d="M438.734 46.9575C438.634 48.8575 437.834 52.8575 436.834 55.6575C434.934 61.2575 435.034 63.4575 438.234 75.9575C440.334 84.5575 442.634 97.5575 442.634 102.058C442.734 104.058 443.034 105.958 443.334 106.258C443.734 106.558 444.134 109.258 444.234 112.158C444.334 115.058 444.634 117.458 444.734 117.458C445.634 117.458 446.334 155.658 445.434 156.558C445.134 156.858 445.134 157.758 445.334 158.458C445.634 159.158 445.434 160.058 444.934 160.358C444.334 160.658 444.134 161.858 444.434 162.958C444.734 164.058 444.434 165.658 443.734 166.458C443.034 167.358 442.734 168.258 443.034 168.558C443.334 168.958 444.634 166.958 445.834 164.358C447.034 161.658 448.834 157.658 449.834 155.458C455.834 142.358 456.134 109.958 450.634 87.0575C447.134 72.4575 446.534 70.6575 444.634 65.7575C443.534 63.1575 442.734 60.1575 442.734 59.0575C442.734 57.9575 442.334 56.8575 441.934 56.5575C441.534 56.3575 441.034 53.7575 440.934 50.8575C440.634 44.7575 438.734 41.4575 438.734 46.9575Z" fill="white"/>
<path d="M608.734 54.3575C607.534 57.7575 607.534 89.6575 608.734 99.9575C609.334 104.058 610.134 116.658 610.634 127.958L611.534 148.458L608.634 158.858C607.134 164.658 606.034 169.558 606.234 169.758C606.734 170.358 610.734 161.858 610.434 160.858C610.334 160.558 610.834 159.558 611.634 158.558C612.434 157.658 612.734 156.658 612.434 156.358C612.134 156.058 613.034 153.558 614.434 150.758C615.834 147.958 617.134 143.658 617.334 141.058C617.534 138.558 618.134 133.258 618.634 129.458C619.634 122.558 618.534 88.2575 617.234 82.9575C616.834 81.5575 616.434 79.7575 616.334 78.9575C615.234 72.6575 614.334 69.1575 613.434 67.4575C612.834 66.3575 612.234 62.7575 612.034 59.4575C611.634 52.4575 610.234 50.3575 608.734 54.3575Z" fill="white"/>
<path d="M304.334 61.7576C304.034 62.2576 302.234 63.0576 300.234 63.3576C298.334 63.7576 296.234 64.5576 295.534 65.2576C294.834 65.9576 292.634 66.9576 290.734 67.5576L287.234 68.5576L286.434 76.9576C285.434 87.5576 286.034 89.9576 289.134 89.9576C290.534 89.9576 291.734 89.5576 291.934 88.9576C292.134 88.4576 299.734 87.4576 308.934 86.7576C324.134 85.6576 326.234 85.7576 331.234 87.3576C336.234 88.9576 336.634 89.1576 335.434 90.9576C334.834 92.0576 332.634 93.6576 330.734 94.5576C322.934 98.2576 307.734 111.358 307.734 114.558C307.734 115.158 306.034 118.958 303.834 123.058C301.734 127.158 299.634 131.758 299.234 133.458C298.034 137.958 298.034 137.958 297.734 138.158C297.534 138.458 297.234 139.758 296.434 143.958C295.434 148.658 294.634 149.458 287.934 152.758C279.834 156.658 277.534 156.758 272.534 153.258C267.834 150.058 266.834 150.658 263.934 158.958C262.834 161.958 261.334 165.958 260.634 167.758C259.634 170.158 259.534 171.258 260.334 171.758C261.834 172.658 269.034 183.958 268.134 183.958C267.734 183.958 268.034 184.558 268.634 185.258C269.234 186.058 269.434 186.958 269.134 187.258C268.734 187.558 268.834 188.658 269.234 189.658C270.134 191.958 270.534 195.858 271.134 208.458C271.534 216.158 271.234 218.958 270.134 220.358C269.334 221.458 268.734 223.158 268.734 224.158C268.734 225.858 262.434 232.958 260.834 232.958C260.434 232.958 259.234 233.858 258.334 234.858C257.434 235.858 253.234 238.458 249.134 240.558C245.034 242.558 241.734 244.658 241.734 245.158C241.734 245.558 241.134 245.958 240.434 245.958C239.634 245.958 237.534 246.658 235.734 247.558C233.334 248.858 229.634 249.258 220.834 249.258C208.134 249.258 206.534 248.758 197.934 242.258C191.634 237.558 190.234 235.658 187.134 227.658C185.134 222.358 184.634 219.758 185.034 215.158C185.534 208.958 189.234 194.958 190.634 194.058C191.034 193.758 191.834 192.358 192.234 191.058C192.634 189.758 194.134 187.458 195.634 186.058C197.034 184.558 198.334 182.758 198.534 181.858C198.934 179.258 195.834 180.058 193.234 183.158C190.534 186.358 183.634 198.158 183.334 200.258C183.234 200.858 182.534 202.458 181.934 203.658C181.234 204.958 180.934 205.958 181.334 205.958C181.634 205.958 181.334 206.658 180.634 207.658C179.834 208.558 179.334 209.458 179.534 209.658C179.634 209.758 179.734 210.058 179.634 210.158C178.134 215.058 176.934 221.458 177.334 222.158C177.634 222.558 177.534 222.958 177.034 222.958C176.134 222.958 176.334 240.358 177.234 245.958C177.534 247.858 177.934 250.458 178.034 251.658C178.334 254.058 181.234 257.358 188.334 263.458C196.634 270.558 201.434 272.158 214.134 272.058C220.434 272.058 229.434 270.358 231.334 268.758C232.034 268.258 236.334 265.958 241.034 263.558C254.634 256.758 264.634 248.258 268.334 240.458C269.634 237.558 270.734 234.858 270.734 234.458C270.734 233.958 271.534 231.758 272.634 229.558C280.834 211.358 284.234 195.058 283.134 179.258L282.534 171.458L285.534 170.158C289.434 168.458 293.534 164.358 295.134 160.458C295.834 158.858 297.334 156.658 298.534 155.658C300.434 153.858 300.634 153.858 304.534 155.858C310.434 158.858 325.634 159.258 328.634 156.558C332.334 153.258 335.734 145.258 335.734 140.158C335.734 132.958 332.734 121.958 329.534 117.158C324.934 110.358 325.834 108.758 337.234 103.758C343.234 101.258 343.434 101.158 347.234 100.358C348.934 100.058 350.934 99.5576 351.734 99.2576C352.534 98.9576 358.634 98.5576 365.234 98.2576C371.834 97.9576 377.934 97.3576 378.834 96.9576C380.834 95.8576 385.734 86.4576 385.734 83.6576C385.834 82.4576 386.434 79.6576 387.234 77.4576C388.034 75.2576 388.334 73.1576 387.834 72.6576C387.334 72.1576 383.734 72.8576 379.734 74.0576C373.334 75.9576 371.034 76.1576 361.334 75.6576C353.234 75.1576 348.334 74.3576 343.234 72.4576C339.434 71.1576 335.434 69.9576 334.534 69.9576C333.534 69.9576 331.034 69.0576 328.934 67.9576C321.334 63.9576 305.434 59.9576 304.334 61.7576ZM320.334 130.958C322.434 132.858 324.934 137.858 324.234 138.958C322.634 141.558 308.734 138.758 308.734 135.858C308.734 135.458 308.434 134.458 308.134 133.658C307.834 132.858 308.434 131.458 309.334 130.558C311.334 128.558 317.634 128.858 320.334 130.958Z" fill="white"/>
<path d="M15.8346 63.1575C9.03459 63.9575 6.63459 65.3575 4.73459 70.0575C3.03459 74.0575 3.93459 74.6575 7.73459 71.9575C12.7346 68.3575 23.7346 68.1575 23.7346 71.6575C23.7346 74.0575 18.0346 81.8575 13.1346 86.2575C10.7346 88.4575 8.73459 90.6575 8.73459 91.3575C8.73459 91.9575 9.43459 91.6575 10.1346 90.7575C10.8346 89.7575 11.7346 89.2575 12.0346 89.6575C12.4346 89.9575 12.7346 89.7575 12.7346 89.1575C12.7346 88.4575 13.4346 87.9575 14.2346 87.9575C16.3346 87.9575 21.3346 82.7575 23.7346 77.9575C25.0346 75.4575 25.7346 72.0575 25.7346 68.6575C25.7346 62.2575 25.3346 62.0575 15.8346 63.1575Z" fill="white"/>
<path d="M63.9345 63.2575C57.8345 64.4575 49.6345 69.1575 47.0345 72.9575C45.8345 74.6575 44.5345 78.2575 44.1345 80.7575C43.8345 83.3575 43.1345 85.9575 42.6345 86.5575C42.2345 87.0575 42.1345 88.5575 42.4345 89.8575C42.9345 91.9575 43.3345 92.0575 48.1345 91.4575C50.9345 91.0575 56.1345 90.0575 59.7345 89.1575C68.4345 86.9575 80.1345 87.2575 85.8345 89.7575C88.2345 90.8575 92.5345 92.5575 95.2345 93.4575C102.835 96.0575 104.735 97.1575 104.735 98.8575C104.735 100.658 96.0345 106.958 93.7345 106.958C92.8345 106.958 89.8345 108.558 86.8345 110.458C83.9345 112.358 81.1345 113.958 80.6345 113.958C80.1345 113.958 79.7345 114.358 79.7345 114.858C79.7345 116.158 70.4345 117.658 67.2345 116.758C65.6345 116.358 63.9345 115.358 63.5345 114.558C63.0345 113.658 60.6345 111.658 58.2345 109.958C54.5345 107.458 53.4345 107.058 51.7345 107.958C50.6345 108.558 49.7345 108.758 49.7345 108.458C49.7345 108.158 48.6345 108.658 47.2345 109.558C45.8345 110.458 44.7345 110.858 44.7345 110.558C44.7345 110.158 42.8345 111.158 40.5345 112.858C35.7345 116.158 29.0345 121.958 30.0345 121.958C30.3345 121.958 28.7345 123.758 26.4345 125.958C21.9345 130.358 16.9345 137.658 13.7345 144.958C12.5345 147.458 11.0345 150.758 10.2345 152.458C8.83451 155.558 7.73451 160.958 8.43451 160.958C8.73451 160.958 10.0345 160.058 11.4345 158.958C16.3345 155.058 24.7345 154.458 24.7345 157.958C24.7345 159.358 21.2345 160.958 18.2345 160.958C16.8345 160.958 14.7345 161.358 13.7345 161.958C11.7345 163.058 7.73451 168.258 7.33451 170.258C7.13451 170.958 6.43451 172.758 5.73451 174.458C4.93451 176.058 4.33451 177.858 4.23451 178.458C4.23451 178.958 3.63451 180.458 2.93451 181.558C2.33451 182.758 2.03451 183.958 2.43451 184.258C2.73451 184.658 2.43451 185.658 1.63451 186.558C-0.0654907 188.658 -0.665491 215.758 0.934509 217.758C1.53451 218.458 1.73451 219.258 1.43451 219.558C1.13451 219.858 1.33451 221.558 1.93451 223.258C2.43451 225.058 2.83451 227.658 2.83451 229.158C2.73451 230.758 3.23451 231.958 3.73451 231.958C4.33451 231.958 4.63451 232.358 4.33451 232.758C3.83451 233.558 5.13451 239.558 6.43451 242.958C6.73451 243.758 7.13451 244.858 7.23451 245.458C7.33451 245.958 7.53451 246.658 7.63451 246.958C7.73451 247.258 8.03451 249.058 8.33451 250.958C9.03451 257.258 13.8345 280.258 15.8345 287.458C18.2345 296.158 20.6345 312.458 19.9345 315.158C19.5345 316.758 19.8345 317.058 21.3345 316.758C22.8345 316.558 23.3345 315.458 23.4345 312.258C23.6345 309.958 24.1345 306.158 24.6345 303.958C26.1345 297.458 24.6345 266.258 22.8345 263.658C22.7345 263.558 22.4345 261.758 22.2345 259.558C22.0345 257.458 21.3345 255.158 20.7345 254.558C20.2345 253.858 19.9345 253.058 20.2345 252.758C20.8345 252.258 18.8345 239.958 17.9345 238.558C17.6345 237.958 17.1345 236.558 17.0345 235.458C16.3345 229.558 13.1345 216.958 12.4345 216.958C12.0345 216.958 11.8345 216.558 12.1345 216.158C12.4345 215.658 12.0345 213.358 11.3345 210.858C9.03451 202.858 7.33451 189.258 8.33451 185.858C9.53451 181.858 14.3345 180.158 27.3345 179.258C35.0345 178.758 37.3345 178.958 42.5345 180.858C50.6345 183.558 51.0345 183.558 52.5345 179.658C53.2345 177.958 54.3345 175.658 54.8345 174.658C57.0345 170.458 58.8345 163.458 58.3345 160.758C57.6345 157.258 46.3345 144.658 35.9345 135.758C33.6345 133.858 31.7345 131.758 31.7345 131.258C31.7345 130.758 32.7345 129.358 34.0345 128.258C36.0345 126.358 41.2345 125.858 48.4345 126.758C49.0345 126.858 51.7345 129.258 54.4345 132.058C58.9345 136.658 59.8345 137.158 63.5345 137.158C68.5345 137.058 83.6345 130.858 88.8345 126.758C90.8345 125.258 93.0345 123.958 93.5345 123.958C94.1345 123.958 95.2345 123.358 95.9345 122.658C98.7345 119.758 111.735 110.858 114.935 109.558C116.735 108.758 122.735 107.558 128.235 106.958C138.535 105.658 143.435 104.358 142.435 103.258C142.035 102.958 143.235 100.558 145.135 97.9575C146.935 95.4575 149.035 91.6575 149.635 89.6575C150.335 87.6575 151.335 85.7575 151.835 85.4575C152.335 85.0575 152.735 83.8575 152.735 82.5575C152.735 80.4575 152.335 80.3575 145.035 80.3575C138.035 80.2575 124.035 79.4575 122.735 78.9575C122.435 78.7575 121.935 78.7575 121.435 78.8575C121.035 78.9575 119.235 78.3575 117.335 77.5575C115.535 76.7575 112.235 75.9575 110.135 75.6575C107.935 75.3575 101.735 73.2575 96.2345 70.9575C81.8345 65.1575 69.4345 62.1575 63.9345 63.2575Z" fill="white"/>
<path d="M501.435 64.6576C501.135 65.6576 500.635 68.6576 500.235 71.4576C499.135 81.0576 498.835 81.7576 496.635 81.2576C495.435 80.9576 494.335 79.9576 494.035 79.0576C493.735 78.1576 491.735 75.1576 489.635 72.3576C485.535 66.7576 480.535 63.9576 477.835 65.6576C476.035 66.8576 475.435 70.8576 476.935 72.6576C477.535 73.3576 477.635 73.9576 477.135 73.9576C476.635 73.9576 477.535 75.0576 479.135 76.4576C480.935 78.0576 483.235 78.9576 485.335 78.9576C488.135 78.9576 489.135 79.5576 491.035 82.6576C494.335 87.9576 496.735 94.9576 496.735 98.9576C496.735 105.458 498.635 100.558 499.235 92.4576C500.235 78.5576 501.935 70.9576 504.135 70.9576C504.835 70.9576 506.235 71.8576 507.235 72.9576C508.235 74.0576 509.335 74.6576 509.835 74.3576C511.435 73.4576 509.535 67.4576 506.835 65.2576C503.735 62.5576 502.035 62.3576 501.435 64.6576Z" fill="white"/>
<path d="M548.334 75.4575C547.934 76.8575 547.934 79.0575 548.334 80.3575C548.734 81.9575 548.434 82.8575 547.234 83.3575C545.134 84.1575 541.734 82.3575 541.734 80.3575C541.734 79.5575 541.234 79.1575 540.734 79.4575C540.134 79.8575 539.934 80.4575 540.234 80.9575C540.534 81.3575 540.034 82.2575 539.234 82.9575C538.434 83.6575 537.734 84.8575 537.734 85.5575C537.734 86.4575 536.534 86.9575 534.234 86.9575C530.034 86.9575 527.734 84.0575 528.134 79.1575C528.234 77.0575 527.934 75.9575 527.034 75.9575C524.034 75.9575 525.934 91.8575 529.234 94.1575C531.434 95.8575 535.634 94.9575 537.634 92.3575C539.434 90.0575 540.134 89.8575 543.734 90.4575C547.334 91.0575 548.134 90.8575 550.234 88.4575C552.934 85.5575 553.434 81.3575 551.634 76.0575C550.334 72.3575 549.134 72.0575 548.334 75.4575Z" fill="white"/>
<path d="M1471.13 99.1575C1469.13 102.958 1466.13 112.158 1465.33 117.158C1464.93 119.558 1465.13 121.258 1466.03 122.158C1466.73 122.858 1468.43 124.958 1469.73 126.858C1471.03 128.758 1474.03 132.358 1476.43 134.858C1480.23 139.058 1480.83 139.358 1482.73 138.158C1485.43 136.558 1487.33 137.858 1488.23 142.058C1488.63 143.658 1489.33 144.958 1489.83 144.958C1490.43 144.958 1490.63 145.358 1490.23 145.858C1489.93 146.458 1491.23 151.558 1493.13 157.258C1496.93 168.958 1498.63 181.258 1496.63 182.458C1494.93 183.558 1484.93 183.058 1479.23 181.658C1474.83 180.558 1474.33 180.158 1473.33 176.558C1472.73 174.358 1471.73 172.458 1471.23 172.358C1469.93 171.958 1463.43 181.458 1463.23 184.058C1463.13 185.158 1462.53 186.558 1461.93 187.158C1461.23 187.858 1460.73 189.158 1460.73 190.158C1460.73 191.158 1460.03 192.258 1459.23 192.558C1457.33 193.358 1447.73 192.158 1445.83 191.058C1444.33 190.058 1443.43 185.158 1444.53 183.458C1444.93 182.958 1445.23 182.158 1445.33 181.658C1445.43 181.258 1445.53 180.858 1445.63 180.658C1445.83 180.558 1446.13 179.358 1446.33 177.958C1446.53 176.658 1447.23 175.258 1447.73 174.958C1448.23 174.658 1448.23 173.858 1447.73 172.958C1447.03 171.858 1446.43 172.058 1444.73 174.058C1443.63 175.358 1441.73 178.458 1440.43 180.958C1437.83 186.358 1430.73 193.758 1427.53 194.358C1424.93 194.858 1395.53 197.158 1391.83 197.158C1390.63 197.158 1389.13 196.758 1388.63 196.258C1387.63 195.258 1389.73 190.258 1393.33 185.458C1396.83 180.658 1401.73 171.058 1401.73 168.958C1401.73 165.958 1399.03 166.558 1397.23 169.958C1396.43 171.558 1395.73 173.158 1395.73 173.458C1395.73 173.758 1393.53 176.158 1390.93 178.758C1381.73 187.858 1367.83 192.558 1345.93 193.958C1337.83 194.558 1324.73 195.658 1316.83 196.558C1308.93 197.458 1301.43 197.958 1300.13 197.658C1298.73 197.458 1297.43 197.658 1297.13 198.058C1296.83 198.558 1293.13 198.958 1288.93 198.958C1278.53 198.858 1264.93 199.758 1263.63 200.558C1263.03 200.858 1256.93 201.358 1249.93 201.658C1243.03 201.858 1236.93 202.358 1236.53 202.558C1236.03 202.858 1228.63 203.258 1219.93 203.558C1211.33 203.758 1195.93 204.458 1185.73 204.958C1120.63 208.458 1003.03 208.658 943.234 205.458C928.434 204.658 907.734 203.558 897.234 203.058C886.834 202.458 877.334 201.958 876.234 201.858C875.134 201.858 871.534 201.658 868.134 201.558C864.834 201.358 861.634 201.058 861.034 200.658C860.434 200.258 855.734 199.758 850.634 199.358C845.434 199.058 840.534 198.558 839.734 198.358C838.934 198.058 836.434 197.658 834.234 197.358C812.334 195.158 790.134 192.458 780.734 190.858C774.434 189.758 766.534 188.458 763.234 187.858C759.934 187.358 754.534 186.258 751.234 185.458C737.234 182.258 730.834 180.958 724.234 179.858C720.434 179.258 716.834 178.358 716.234 177.958C715.734 177.558 713.934 176.958 712.234 176.558C710.634 176.158 706.334 174.658 702.734 173.258C699.234 171.858 695.734 170.658 695.034 170.558C693.134 170.258 680.734 163.758 678.734 161.958C677.834 161.158 675.034 158.658 672.534 156.558C670.034 154.358 668.134 152.058 668.334 151.458C668.934 149.958 663.534 141.958 662.034 141.958C661.334 141.958 660.734 141.658 660.734 141.158C660.734 139.358 652.434 141.458 645.634 144.858C639.934 147.758 637.134 149.958 633.434 154.558C628.334 160.758 624.134 168.558 623.334 173.558C623.134 175.158 622.834 176.458 622.734 176.458C622.634 176.458 622.434 177.558 622.134 178.758C621.534 182.058 624.834 186.258 629.634 188.458C632.034 189.458 633.734 190.958 633.734 191.958C633.734 194.658 624.934 202.758 613.934 210.058C608.234 213.858 603.434 216.958 603.134 216.958C602.934 216.958 600.634 218.458 598.034 220.258C593.534 223.458 586.434 227.058 578.934 230.158C577.234 230.858 575.734 231.858 575.734 232.258C575.734 232.758 575.334 232.758 574.734 232.458C574.234 232.158 573.734 232.558 573.734 233.358C573.734 234.858 575.434 234.658 578.234 233.058C578.834 232.758 581.534 231.958 584.234 231.358C587.034 230.658 593.934 228.758 599.634 227.058C605.334 225.358 611.134 223.758 612.534 223.458C613.834 223.258 615.534 222.558 616.334 221.858C617.134 221.258 618.034 220.958 618.434 221.258C619.634 222.458 630.734 212.858 630.734 210.658C630.734 210.058 631.334 209.158 632.034 208.558C633.534 207.358 636.234 200.958 637.134 196.758C638.134 192.258 641.634 192.158 650.034 196.358C653.934 198.358 658.634 200.158 660.234 200.558C663.134 201.058 663.334 200.758 667.234 193.258C670.934 186.058 671.434 185.458 674.234 185.558C675.934 185.658 680.034 186.958 683.234 188.558C686.534 190.058 689.534 191.458 690.034 191.558C690.434 191.658 690.834 191.758 691.034 191.958C691.134 192.058 692.134 192.258 693.234 192.458C694.334 192.658 698.834 194.158 703.234 195.758C713.734 199.658 717.534 200.658 727.734 202.358C732.434 203.158 737.434 204.258 738.734 204.758C740.134 205.258 743.534 205.958 746.234 206.358C749.034 206.758 754.634 207.658 758.734 208.458C762.834 209.258 769.434 210.358 773.234 210.958C777.134 211.558 782.234 212.458 784.734 212.958C790.234 214.158 811.134 216.558 827.234 217.958C839.134 218.958 842.734 219.458 849.034 220.558C850.734 220.858 854.234 221.358 856.734 221.558C859.234 221.758 863.534 222.158 866.234 222.558C869.034 222.858 878.934 223.258 888.234 223.458C906.934 223.858 938.934 225.258 976.734 227.458C1007.63 229.258 1149.63 227.858 1182.73 225.458C1194.03 224.658 1214.73 223.958 1228.73 223.858C1242.73 223.758 1254.73 223.458 1255.23 223.058C1255.83 222.758 1258.23 222.358 1260.73 222.258C1263.23 222.158 1268.83 221.858 1273.23 221.558C1277.63 221.358 1283.33 221.158 1285.93 221.058C1288.43 221.058 1290.83 220.658 1291.03 220.258C1291.33 219.758 1294.63 219.258 1298.33 219.158C1302.03 218.958 1305.53 218.558 1306.13 218.258C1306.73 217.858 1310.53 217.658 1314.73 217.758C1321.23 217.958 1331.43 216.858 1346.13 214.558C1348.23 214.158 1350.73 213.458 1351.73 212.958C1352.73 212.458 1357.73 210.658 1362.93 208.958C1371.53 206.158 1372.63 206.058 1377.73 207.058C1380.73 207.758 1383.63 208.658 1384.23 209.158C1384.73 209.558 1386.03 209.958 1387.13 209.958C1389.23 209.958 1399.03 213.158 1404.53 215.558C1406.33 216.358 1408.23 216.758 1408.73 216.458C1409.33 216.158 1409.73 216.358 1409.73 216.958C1409.73 218.258 1411.43 217.858 1420.73 214.158C1425.33 212.358 1428.43 210.358 1431.43 207.058L1435.53 202.558L1442.43 204.858C1446.13 206.158 1450.33 207.958 1451.73 208.958C1455.33 211.558 1460.73 212.558 1460.73 210.658C1460.73 209.858 1461.73 208.558 1463.03 207.658C1464.23 206.858 1466.33 203.958 1467.73 201.058C1469.13 198.258 1470.93 195.758 1471.73 195.458C1472.53 195.258 1477.43 195.658 1482.63 196.358C1493.33 197.858 1496.63 197.158 1499.03 193.058C1499.83 191.658 1500.53 190.158 1500.63 189.658C1500.63 189.258 1501.43 187.558 1502.23 185.958C1503.13 184.258 1503.53 182.958 1503.13 182.958C1502.73 182.958 1503.03 182.358 1503.63 181.558C1504.23 180.758 1504.73 179.758 1504.53 179.358C1504.43 178.858 1504.83 177.458 1505.53 176.258C1506.13 175.058 1506.83 173.258 1507.03 172.258C1507.13 171.258 1507.63 169.958 1508.03 169.258C1508.43 168.658 1508.23 167.758 1507.63 167.458C1507.13 167.058 1506.83 166.158 1507.13 165.358C1507.43 164.658 1507.23 163.758 1506.83 163.458C1506.33 163.258 1506.13 161.058 1506.23 158.758C1506.33 156.258 1505.83 153.558 1505.03 152.258C1504.13 150.958 1503.83 149.958 1504.23 149.958C1504.63 149.958 1504.33 149.258 1503.63 148.258C1502.83 147.358 1502.33 146.458 1502.53 146.258C1502.63 146.158 1502.63 145.658 1502.63 145.158C1502.53 144.758 1502.53 143.758 1502.63 142.758C1502.73 141.858 1502.33 140.858 1501.83 140.558C1501.23 140.158 1501.03 139.258 1501.33 138.558C1501.63 137.758 1501.43 136.858 1500.83 136.458C1500.23 136.158 1499.73 134.958 1499.73 133.858C1499.73 132.858 1499.23 131.958 1498.63 131.958C1498.03 131.958 1497.83 131.258 1498.13 130.358C1498.43 129.458 1498.13 127.558 1497.33 126.158C1496.63 124.658 1494.53 120.558 1492.83 116.958C1489.93 110.958 1483.73 102.958 1481.93 102.958C1481.03 102.958 1477.53 100.458 1474.63 97.7575C1472.83 96.0575 1472.73 96.1575 1471.13 99.1575ZM656.034 156.058C658.034 156.958 659.034 159.058 661.334 166.558C662.834 171.758 663.834 176.258 663.434 176.558C663.134 176.858 661.134 176.658 659.034 176.058C648.834 172.958 644.734 171.458 644.734 170.858C644.734 170.458 643.634 169.858 642.234 169.558C640.834 169.158 639.734 168.458 639.734 167.958C639.734 167.358 639.134 166.958 638.334 166.958C631.034 166.958 644.334 155.358 651.934 155.058C652.834 154.958 654.734 155.458 656.034 156.058Z" fill="white"/>
<path d="M575.234 107.258C572.434 116.658 572.234 118.658 572.334 132.958C572.334 145.258 572.734 150.358 574.434 157.458C575.634 162.358 577.134 171.158 577.634 176.858C578.634 186.158 578.534 187.458 577.134 189.158C574.934 191.558 571.334 191.458 566.134 188.858C562.334 187.058 556.634 181.158 556.034 178.458C555.934 177.958 555.134 174.958 554.334 171.958C553.434 168.958 552.734 165.258 552.734 163.858C552.734 162.458 552.434 161.058 552.134 160.758C551.834 160.358 551.434 157.058 551.134 153.258C550.934 149.558 550.534 144.458 550.234 141.958C549.934 139.458 549.334 133.358 548.734 128.458C548.234 123.458 547.334 117.858 546.734 115.958C546.234 114.058 545.734 110.858 545.734 108.958C545.734 99.7575 542.934 98.3575 540.434 106.258C537.734 114.758 538.434 125.258 543.134 150.458C545.734 163.958 544.834 179.758 541.234 186.958C538.834 191.558 534.734 195.058 530.034 196.458C523.634 198.458 519.834 198.358 516.134 196.058C512.534 193.858 506.234 186.558 504.834 182.858C504.334 181.358 503.534 171.158 503.134 160.058C502.734 148.958 502.134 139.658 501.734 139.458C501.334 139.258 500.334 142.658 499.434 147.058C498.534 151.558 497.134 155.958 496.234 156.958C495.434 157.858 490.734 161.058 486.034 163.958C473.334 171.758 454.734 191.758 454.734 197.658C454.734 199.958 464.234 205.958 467.734 205.958C469.134 205.958 473.334 204.758 477.234 203.258C482.634 201.158 485.534 199.158 489.934 194.758C493.134 191.558 496.334 188.958 497.134 188.958C498.134 188.958 498.734 190.658 499.234 194.158C500.234 202.158 502.634 208.558 506.534 213.358C509.034 216.558 515.534 220.258 517.334 219.558C517.934 219.358 518.934 219.558 519.534 220.158C520.334 220.958 521.134 220.958 522.234 219.958C523.034 219.258 523.734 219.058 523.734 219.458C523.734 219.858 524.334 219.758 525.034 219.158C526.234 218.158 526.834 217.958 528.634 217.958C530.034 217.958 539.634 208.058 541.234 204.958C542.034 203.458 542.934 200.358 543.334 198.058C544.234 192.658 546.034 191.158 548.134 194.158C549.034 195.358 549.734 197.058 549.734 197.758C549.734 199.258 553.134 204.558 555.634 206.958C558.234 209.358 562.034 211.558 565.034 212.358C568.334 213.158 576.734 209.658 576.734 207.458C576.734 206.658 577.134 205.958 577.634 205.958C578.634 205.958 582.934 197.658 582.634 196.358C582.534 195.858 582.934 194.158 583.634 192.558C584.234 190.958 584.934 188.958 585.134 188.058C585.334 187.158 585.734 185.658 586.234 184.658C586.634 183.758 586.734 182.258 586.434 181.458C586.034 180.658 586.234 179.758 586.834 179.458C587.934 178.758 587.334 155.658 586.134 153.758C585.734 153.158 585.234 150.358 585.134 147.658C585.034 145.058 584.434 142.258 583.834 141.558C583.234 140.858 583.034 140.058 583.334 139.758C583.634 139.358 583.334 137.458 582.634 135.258C581.934 133.158 581.134 123.858 580.834 114.558C580.434 104.658 579.834 97.4575 579.234 97.2575C578.734 97.1575 576.934 101.558 575.234 107.258ZM496.334 167.158C496.734 167.858 497.234 171.458 497.434 175.158L497.734 181.958L493.534 183.958C487.234 186.958 474.234 185.958 473.034 182.258C472.434 180.458 476.234 177.558 481.734 175.558C484.734 174.458 488.234 172.158 490.434 169.858C494.434 165.658 495.234 165.258 496.334 167.158Z" fill="white"/>
<path d="M1429.43 113.658C1428.93 114.058 1428.23 114.458 1427.93 114.458C1423.83 114.758 1417.73 119.658 1417.73 122.558C1417.73 123.858 1418.13 123.858 1420.73 122.458C1426.13 119.658 1440.73 121.058 1440.73 124.458C1440.73 125.058 1438.83 127.358 1436.53 129.558C1432.13 133.758 1423.73 139.458 1423.73 138.358C1423.73 137.958 1423.13 138.158 1422.53 138.758C1421.83 139.258 1419.73 140.058 1418.03 140.458C1416.23 140.758 1414.73 141.558 1414.73 142.058C1414.73 143.258 1414.83 143.258 1422.53 140.858C1430.43 138.258 1437.53 133.158 1441.43 127.058C1442.93 124.658 1444.33 122.258 1444.33 121.758C1444.43 121.358 1444.53 120.858 1444.73 120.658C1446.03 119.058 1445.13 116.658 1442.83 115.458C1439.33 113.758 1430.53 112.458 1429.43 113.658Z" fill="white"/>
<path d="M390.935 122.158C390.235 122.858 389.735 124.558 389.735 125.958C389.735 128.458 387.135 131.958 385.235 131.958C384.735 131.958 383.435 131.058 382.235 129.958L380.035 127.958L378.935 131.858C377.535 136.458 375.435 138.358 371.835 138.458C368.135 138.558 366.835 136.258 366.735 129.658C366.735 123.158 365.335 122.158 363.835 127.658C362.435 132.658 362.435 138.258 363.835 141.358C365.135 144.058 369.935 146.558 371.935 145.558C374.735 144.258 377.235 142.358 378.535 140.758C379.235 139.858 381.835 138.758 384.335 138.358C391.035 137.358 392.735 135.458 393.435 128.358C394.035 122.158 393.135 119.958 390.935 122.158Z" fill="white"/>
<path d="M146.334 125.558C146.034 126.458 145.734 128.158 145.734 129.358C145.734 130.758 144.734 132.158 143.134 132.958C140.734 134.258 140.434 134.158 138.734 131.958C137.234 129.958 136.734 129.758 135.334 130.858C134.434 131.558 133.734 132.758 133.734 133.458C133.734 134.058 132.834 135.458 131.734 136.458C130.634 137.458 129.734 137.958 129.734 137.458C129.734 137.058 129.134 137.258 128.334 137.858C127.334 138.758 126.334 138.758 124.334 137.858C122.134 136.758 121.734 136.058 121.734 132.258C121.734 127.258 120.334 127.258 119.234 132.158C117.334 140.958 117.934 143.358 122.534 145.058C125.134 146.058 130.434 144.258 132.634 141.558C133.734 140.258 134.934 139.958 137.834 140.458C139.934 140.858 142.434 140.658 143.634 140.058C147.734 137.858 151.834 123.958 148.334 123.958C147.534 123.958 146.634 124.658 146.334 125.558Z" fill="white"/>
<path d="M103.534 153.258C101.134 155.058 94.7344 158.658 89.2344 161.358C78.3344 166.558 73.3344 169.858 71.6344 173.058C69.9344 176.358 72.0344 177.358 74.8344 174.758C77.6344 172.158 84.0344 168.958 86.2344 168.958C87.0344 168.958 87.7344 168.558 87.7344 168.058C87.7344 167.358 95.7344 162.758 97.7344 162.358C99.8344 161.958 103.734 159.858 104.434 158.758C104.834 158.058 106.134 156.958 107.234 156.358C108.334 155.758 109.234 154.758 109.234 154.158C109.234 153.558 109.534 152.758 110.034 152.358C110.434 151.958 110.734 151.258 110.734 150.758C110.734 149.058 107.734 150.058 103.534 153.258Z" fill="white"/>
<path d="M218.534 162.358L213.834 171.758L216.234 174.358C217.634 175.858 218.734 177.458 218.734 178.058C218.734 178.558 219.434 178.958 220.234 178.958C221.034 178.958 221.734 179.258 221.734 179.658C221.734 180.158 223.334 181.558 225.334 182.858C229.634 185.858 229.834 185.658 235.834 174.058L240.234 165.658L237.334 163.558C235.734 162.358 232.434 159.558 229.834 157.258C227.334 154.858 224.834 152.958 224.234 152.958C223.734 152.958 221.134 157.258 218.534 162.358Z" fill="white"/>
<path d="M98.4347 186.358C97.5347 187.658 95.3347 190.458 93.4347 192.458C89.2347 197.058 87.5347 196.758 81.0347 189.858C78.5347 187.158 75.7347 184.958 74.8347 184.958C73.9347 184.958 70.5347 188.658 67.1347 193.258C61.3347 201.258 61.1347 201.558 62.6347 203.958C65.3347 208.258 74.3347 215.958 76.6347 215.958C77.8347 215.958 78.6347 215.558 78.3347 215.058C77.9347 214.558 79.0347 212.958 80.7347 211.658C82.3347 210.258 83.7347 208.458 83.7347 207.758C83.7347 207.058 84.4347 205.658 85.1347 204.658C86.4347 202.958 86.7347 202.958 89.7347 204.458C91.4347 205.358 93.0347 206.658 93.3347 207.458C93.6347 208.258 94.7347 209.158 95.8347 209.458C96.9347 209.858 97.5347 210.558 97.2347 211.058C96.8347 211.558 97.2347 211.958 97.9347 211.958C98.6347 211.958 99.8347 212.858 100.535 213.958C101.235 215.058 102.735 215.958 103.935 215.958C105.135 215.958 105.735 215.658 105.435 215.258C105.035 214.958 106.435 212.758 108.535 210.358C115.335 202.558 116.735 200.258 116.035 198.258C115.035 195.458 103.435 183.958 101.635 183.958C100.735 183.958 99.2347 185.058 98.4347 186.358Z" fill="white"/>
<path d="M322.334 186.857C320.934 189.057 318.734 198.257 318.734 201.757C318.734 212.657 329.834 215.657 334.234 205.957C336.234 201.557 335.934 198.657 333.434 198.157C332.234 197.857 331.334 198.757 330.634 200.957C329.634 203.657 329.134 204.057 326.334 203.757C323.634 203.457 323.134 202.957 322.334 199.757C321.634 197.157 321.834 194.857 322.734 192.057C324.034 187.957 323.834 184.457 322.334 186.857Z" fill="white"/>
<path d="M472.735 232.157C464.235 237.657 457.035 242.557 456.735 242.857C456.435 243.157 452.835 245.157 448.735 247.157C443.635 249.757 440.835 251.757 440.035 253.657C438.335 257.157 439.135 257.757 442.635 255.657C444.235 254.757 446.235 253.957 447.035 253.957C447.835 253.957 448.835 253.257 449.135 252.357C449.435 251.557 450.135 251.057 450.535 251.357C451.035 251.657 453.035 250.757 455.035 249.457C457.035 248.057 459.035 246.957 459.635 246.957C460.135 246.957 461.235 246.357 461.935 245.657C462.635 244.957 465.235 242.857 467.735 241.057C470.235 239.157 472.735 237.157 473.235 236.557C474.535 235.157 477.035 233.657 482.835 230.457C485.435 229.157 488.235 227.357 489.135 226.457C491.035 224.457 491.235 221.957 489.435 221.957C488.735 221.957 481.235 226.557 472.735 232.157Z" fill="white"/>
<path d="M1484.63 226.358C1480.83 230.158 1477.03 234.958 1476.13 237.258C1475.83 238.258 1478.03 240.458 1483.33 244.258L1491.03 249.858L1494.63 246.958C1496.63 245.458 1500.23 242.158 1502.53 239.658L1506.93 235.258L1502.73 232.358C1500.43 230.758 1496.53 227.958 1494.13 226.158C1491.73 224.458 1489.33 222.958 1488.93 222.958C1488.43 222.958 1486.53 224.458 1484.63 226.358Z" fill="white"/>
<path d="M655.734 227.658C651.034 229.558 647.034 231.458 646.734 231.758C646.434 232.158 640.534 235.358 633.534 238.858C619.834 245.658 616.734 247.758 616.734 250.358C616.734 251.258 616.934 251.958 617.134 251.958C618.334 251.958 624.734 248.858 625.234 248.058C625.534 247.458 626.334 247.258 627.034 247.558C627.734 247.758 633.234 245.158 639.234 241.658C645.334 238.258 652.734 234.258 655.734 232.758C661.434 230.158 665.234 226.858 664.634 225.058C664.434 224.558 660.434 225.658 655.734 227.658Z" fill="white"/>
<path d="M280.035 253.258C276.835 255.858 267.335 261.958 266.535 261.958C265.535 261.958 249.335 273.158 246.535 275.758C243.535 278.458 242.935 281.458 245.035 282.158C245.635 282.458 251.035 279.258 256.835 275.058C262.735 270.858 270.535 265.858 274.235 263.958C282.335 259.858 286.735 255.958 286.735 253.058C286.735 250.258 283.635 250.358 280.035 253.258Z" fill="white"/>
<path d="M1503.03 257.558C1500.73 258.958 1497.83 260.258 1496.53 260.558C1492.73 261.358 1492.43 261.558 1488.23 263.458C1486.03 264.458 1484.03 265.358 1483.73 265.358C1477.73 266.558 1452.43 281.958 1456.43 281.958C1457.23 281.958 1468.93 276.458 1476.73 272.458C1479.23 271.158 1484.63 268.858 1488.73 267.358C1497.63 264.258 1504.33 260.658 1507.63 257.358C1510.73 254.258 1508.53 254.358 1503.03 257.558Z" fill="white"/>
</svg>
