<svg width="40" height="40" viewBox="0 0 40 40" fill="none" xmlns="http://www.w3.org/2000/svg">
<path fill-rule="evenodd" clip-rule="evenodd" d="M6.62959 13.8695C6.62959 13.9854 6.58433 14.0965 6.50375 14.1785L1.39538 19.3734C1.22758 19.5441 1.22758 19.8207 1.39538 19.9914L6.50375 25.1863C6.58433 25.2682 6.62959 25.3794 6.62959 25.4953V32.8419C6.62959 33.0832 6.82196 33.2789 7.05926 33.2789H14.2835C14.3974 33.2789 14.5067 33.3249 14.5873 33.4068L19.6959 38.602C19.8637 38.7727 20.1357 38.7727 20.3035 38.602L25.4121 33.4068C25.4927 33.3249 25.602 33.2789 25.7159 33.2789H32.9401C33.1774 33.2789 33.3697 33.0832 33.3697 32.8419V25.4953C33.3697 25.3794 33.415 25.2683 33.4956 25.1864L38.604 19.9914C38.7718 19.8207 38.7718 19.5441 38.604 19.3734L33.4956 14.1784C33.415 14.0965 33.3697 13.9853 33.3697 13.8694V6.52244C33.3697 6.28112 33.1774 6.0855 32.9401 6.0855H25.7155C25.6016 6.0855 25.4923 6.03946 25.4117 5.95752L20.3035 0.762743C20.1357 0.592106 19.8637 0.592106 19.6959 0.762743L14.5877 5.95752C14.5071 6.03946 14.3978 6.0855 14.2839 6.0855H7.05926C6.82196 6.0855 6.62959 6.28112 6.62959 6.52244V13.8695Z" fill="white"/>
<path fill-rule="evenodd" clip-rule="evenodd" d="M18.9261 0.444809C19.5192 -0.148269 20.4808 -0.14827 21.0739 0.444808L26.0419 5.41285H33.0682C33.907 5.41285 34.5869 6.09278 34.5869 6.93152V13.9579L39.5552 18.9261C40.1483 19.5192 40.1483 20.4808 39.5552 21.0739L34.5869 26.0421V33.0681C34.5869 33.9068 33.907 34.5867 33.0682 34.5867H26.0423L21.0739 39.5552C20.4808 40.1483 19.5192 40.1483 18.9261 39.5552L13.9577 34.5867H6.9317C6.09296 34.5867 5.41303 33.9068 5.41303 33.0681V26.0421L0.444808 21.0739C-0.148271 20.4808 -0.148268 19.5192 0.444809 18.9261L5.41303 13.9579V6.93152C5.41303 6.09278 6.09296 5.41285 6.9317 5.41285H13.9581L18.9261 0.444809ZM20 2.43913L15.3016 7.13757C15.0167 7.42238 14.6305 7.58238 14.2277 7.58238H7.58256V14.2275C7.58256 14.6303 7.42256 15.0166 7.13775 15.3014L2.43913 20L7.13775 24.6986C7.42255 24.9834 7.58256 25.3697 7.58256 25.7725V32.4172H14.2273C14.6301 32.4172 15.0163 32.5772 15.3011 32.862L20 37.5609L24.6989 32.862C24.9837 32.5772 25.3699 32.4172 25.7727 32.4172H32.4174V25.7725C32.4174 25.3698 32.5774 24.9835 32.8622 24.6987L37.5609 20L32.8622 15.3013C32.5774 15.0165 32.4174 14.6302 32.4174 14.2275V7.58238H25.7723C25.3695 7.58238 24.9832 7.42238 24.6984 7.13757L20 2.43913Z" fill="#40A083"/>
</svg>
