<svg width="48" height="48" viewBox="0 0 48 48" fill="none" xmlns="http://www.w3.org/2000/svg">
<g clip-path="url(#clip0_1247_277)">
<rect width="48" height="48" fill="#40A083"/>
<path d="M26.3227 28.4251H21.1216C18.6442 28.4251 16.6357 26.531 16.6357 24.1944V17.0867H30.8088V24.1944C30.8088 26.531 28.8004 28.4251 26.3227 28.4251Z" fill="#FED2A4"/>
<path d="M26.2676 17.0867V24.1944C26.2676 26.531 24.0178 28.4251 21.2427 28.4251H25.7844C28.5595 28.4251 30.8095 26.531 30.8095 24.1944V17.0867H26.2676Z" fill="#FFBD86"/>
<path d="M24.8624 10H22.5822C19.298 10 16.6357 12.1531 16.6357 14.8092V17.0865H30.8088V14.8092C30.8088 12.1531 28.1465 10 24.8624 10Z" fill="white"/>
<path d="M24.5676 10H22.1741C21.8576 10 21.5467 10.0185 21.2427 10.0535C24.2483 10.4 26.5534 12.397 26.5534 14.8092V17.0865H30.8095V14.8092C30.8097 12.1531 28.0151 10 24.5676 10Z" fill="#E5E5E5"/>
<path d="M33.0991 54.9995H14.9194V30.1427L19.4515 27.5891H28.5487L33.0991 30.1427V54.9995Z" fill="white"/>
<path d="M28.5478 27.5891H25.04L29.5906 30.1427V54.9995H33.0983V30.1427L28.5478 27.5891Z" fill="#E5E5E5"/>
<path d="M36.7268 34.5668L35.4479 34.5668C33.8626 34.5668 32.5773 35.7285 32.5773 37.1615L32.5773 54.0475C32.5773 54.5732 33.0488 54.9995 33.6306 54.9995L39.954 54.9995L39.9541 41.0214L36.7268 34.5668Z" fill="white"/>
<path d="M32.5771 54.9998L37.2572 54.9998C36.6893 54.9998 36.2287 54.5736 36.2287 54.0477L36.2287 37.1616C36.2287 35.7287 36.4202 34.5669 37.9683 34.5669L35.3801 34.5669C33.8321 34.5669 32.5771 35.7287 32.5771 37.1616L32.5771 54.9998Z" fill="#E5E5E5"/>
<path d="M8 54.9995H14.9191V30.1428L13.13 31.2971C9.92733 33.3633 8 36.865 8 40.6178V54.9995Z" fill="white"/>
<path d="M13.1307 38.5793C12.5078 38.9811 11.9338 39.4381 11.4121 39.9398V54.9994H14.9197V37.425L13.1307 38.5793Z" fill="#E5E5E5"/>
<path d="M39.971 41.2945H36.2654C36.2654 41.2945 36.2654 39.6386 35.8044 38.2555C35.3433 36.8724 33.0986 35.4892 33.0986 35.4892V30.1428C33.0986 30.1428 37.2514 32.7624 38.5706 35.4892C39.8898 38.216 39.971 41.2945 39.971 41.2945Z" fill="white"/>
</g>
<defs>
<clipPath id="clip0_1247_277">
<rect width="48" height="48" fill="white"/>
</clipPath>
</defs>
</svg>
