<svg width="50" height="50" viewBox="0 0 50 50" fill="none" xmlns="http://www.w3.org/2000/svg">
<circle cx="25" cy="25" r="25" fill="#40A083" fill-opacity="0.2"/>
<circle cx="24.9996" cy="25.0001" r="17.2174" fill="white"/>
<circle cx="24.9996" cy="25.0001" r="17.2174" fill="white"/>
<path fill-rule="evenodd" clip-rule="evenodd" d="M25 47C37.1503 47 47 37.1503 47 25C47 12.8497 37.1503 3 25 3C12.8497 3 3 12.8497 3 25C3 37.1503 12.8497 47 25 47ZM24.9998 42.2175C34.5087 42.2175 42.2172 34.509 42.2172 25.0001C42.2172 15.4912 34.5087 7.78269 24.9998 7.78269C15.4909 7.78269 7.78242 15.4912 7.78242 25.0001C7.78242 34.509 15.4909 42.2175 24.9998 42.2175Z" fill="#137463"/>
<path fill-rule="evenodd" clip-rule="evenodd" d="M24.0435 46.0435C35.6655 46.0435 45.087 36.622 45.087 25C45.087 13.378 35.6655 3.95654 24.0435 3.95654C12.4215 3.95654 3 13.378 3 25C3 36.622 12.4215 46.0435 24.0435 46.0435ZM24.9998 42.2175C34.5087 42.2175 42.2172 34.509 42.2172 25.0001C42.2172 15.4912 34.5087 7.78269 24.9998 7.78269C15.4909 7.78269 7.78242 15.4912 7.78242 25.0001C7.78242 34.509 15.4909 42.2175 24.9998 42.2175Z" fill="#00998C"/>
<rect x="38.3916" y="24.0435" width="2.86957" height="1.91304" rx="0.956522" fill="#137463"/>
<rect x="24.0439" y="11.6089" width="2.86957" height="1.91304" rx="0.956522" transform="rotate(-90 24.0439 11.6089)" fill="#137463"/>
<rect x="24.0439" y="25.9565" width="11.4783" height="1.91304" rx="0.956522" transform="rotate(-90 24.0439 25.9565)" fill="#137463"/>
<rect x="25.7461" y="24.0435" width="8.86216" height="1.91304" rx="0.956522" transform="rotate(62.909 25.7461 24.0435)" fill="#137463"/>
<rect x="16.3916" y="24.0435" width="9.56522" height="1.91304" rx="0.956522" fill="#F2584C"/>
<rect x="23.0869" y="23.0872" width="3.82609" height="3.82609" rx="1.91304" fill="#137463"/>
<rect x="8.73926" y="24.0435" width="2.86957" height="1.91304" rx="0.956522" fill="#137463"/>
<rect x="24.0439" y="41.261" width="2.86957" height="1.91304" rx="0.956522" transform="rotate(-90 24.0439 41.261)" fill="#137463"/>
</svg>
