<svg width="48" height="49" viewBox="0 0 48 49" fill="none" xmlns="http://www.w3.org/2000/svg">
<circle cx="24" cy="24.5" r="24" fill="#D4F3EA"/>
<path d="M16.9748 38.7448H34.6079C35.9501 38.7448 36.9204 37.4618 36.555 36.1703L29.6619 11.8104C29.4154 10.9393 28.6202 10.3379 27.7149 10.3379H10.0818C8.73955 10.3379 7.76928 11.6208 8.13473 12.9123L15.0277 37.2722C15.2742 38.1434 16.0694 38.7448 16.9748 38.7448Z" fill="#E7FCB6" stroke="#40A083" stroke-width="1.349"/>
<rect x="12.1289" y="13.2148" width="14.8671" height="2.12388" rx="1.06194" fill="#40A083"/>
<rect x="13.1914" y="17.4619" width="14.8671" height="2.12388" rx="1.06194" fill="#40A083"/>
<path d="M14.7842 22.7729C14.7842 22.1864 15.2596 21.7109 15.8461 21.7109H21.1558C21.7423 21.7109 22.2178 22.1864 22.2178 22.7729C22.2178 23.3594 21.7423 23.8348 21.1558 23.8348H15.8461C15.2596 23.8348 14.7842 23.3594 14.7842 22.7729Z" fill="#40A083"/>
<path d="M34.2616 16.138C34.4658 15.9265 35.3338 16.1376 35.3338 16.1376C35.3338 16.1376 36.2149 16.3064 37.0114 17.1029C37.8078 17.8993 38.0732 18.961 38.0732 18.961C38.0732 18.961 38.3026 19.6254 38.0983 19.8373L24.9402 33.0186C24.8748 33.0864 24.7912 33.1361 24.7006 33.1618L20.6395 34.3023C20.2478 34.412 19.8829 34.0593 19.9778 33.6639L20.9688 29.5643C20.9911 29.4722 21.0375 29.3878 21.1032 29.3196L34.2616 16.138Z" fill="#FFCD2D"/>
<path d="M37.8075 18.4291L38.0838 19.0793C38.0729 19.4911 38.3019 19.621 38.0976 19.8329L24.9394 33.0141C24.874 33.0819 24.7904 33.1316 24.6999 33.1573L20.6388 34.2979C20.2471 34.4076 19.8821 34.0549 19.9771 33.6594C19.9771 33.6594 23.5 32.3315 24.2437 31.7786C24.9873 31.2257 37.8075 18.4291 37.8075 18.4291Z" fill="#C2A137"/>
</svg>
