<svg width="167" height="204" viewBox="0 0 167 204" fill="none" xmlns="http://www.w3.org/2000/svg">
<path d="M16.4379 196.906C16.4379 198.883 15.7036 200.436 14.2349 201.566C12.7662 202.668 10.6197 203.218 7.79532 203.218C6.63732 203.218 5.57817 203.134 4.61788 202.964C3.68583 202.795 2.86676 202.555 2.16066 202.244C1.4828 201.905 0.946171 201.51 0.550756 201.058C0.183585 200.577 0 200.055 0 199.49C0 198.953 0.112976 198.487 0.338927 198.092C0.593122 197.697 0.917927 197.372 1.31334 197.118C2.10417 197.626 3.00797 198.078 4.02476 198.473C5.06978 198.869 6.27014 199.066 7.62585 199.066C8.78385 199.066 9.65941 198.883 10.2525 198.516C10.8457 198.12 11.1422 197.584 11.1422 196.906C11.1422 195.748 10.2949 194.985 8.60027 194.618L6.22778 194.067C4.13773 193.587 2.58432 192.867 1.56754 191.907C0.579 190.946 0.0847317 189.661 0.0847317 188.051C0.0847317 186.215 0.819073 184.733 2.28776 183.603C3.75644 182.445 5.81824 181.866 8.47317 181.866C9.48995 181.866 10.422 181.951 11.2693 182.12C12.1449 182.261 12.8933 182.487 13.5147 182.798C14.1643 183.08 14.6586 183.433 14.9975 183.857C15.3647 184.252 15.5483 184.719 15.5483 185.255C15.5483 185.764 15.4353 186.215 15.2093 186.611C14.9834 186.978 14.7151 187.275 14.4044 187.501C14.1502 187.331 13.8113 187.162 13.3876 186.992C12.9922 186.823 12.5403 186.667 12.0319 186.526C11.5518 186.385 11.0292 186.272 10.4644 186.187C9.92773 186.074 9.3911 186.018 8.85446 186.018C7.75295 186.018 6.89151 186.201 6.27014 186.568C5.64878 186.907 5.3381 187.402 5.3381 188.051C5.3381 188.531 5.50756 188.927 5.84649 189.238C6.21366 189.548 6.83502 189.802 7.71058 190L9.78651 190.509C12.1308 191.045 13.8254 191.836 14.8704 192.881C15.9154 193.898 16.4379 195.239 16.4379 196.906ZM29.0414 199.151C29.8605 199.151 30.609 199.081 31.2868 198.939C31.9647 198.77 32.4589 198.572 32.7696 198.346V193.644L28.6601 194.025C27.5304 194.138 26.6689 194.392 26.0758 194.787C25.4827 195.155 25.1861 195.748 25.1861 196.567C25.1861 197.386 25.4827 198.021 26.0758 198.473C26.6972 198.925 27.6857 199.151 29.0414 199.151ZM28.872 181.908C31.6399 181.908 33.8429 182.501 35.481 183.688C37.1474 184.874 37.9806 186.71 37.9806 189.195V198.982C37.9806 199.66 37.8112 200.196 37.4722 200.592C37.1333 200.987 36.7096 201.34 36.2013 201.651C35.4104 202.131 34.4078 202.512 33.1933 202.795C31.9788 203.077 30.5948 203.218 29.0414 203.218C26.217 203.218 23.9858 202.682 22.3476 201.608C20.7377 200.507 19.9328 198.869 19.9328 196.694C19.9328 194.802 20.5259 193.361 21.7121 192.373C22.9266 191.356 24.6778 190.734 26.9655 190.509L32.7696 189.915V189.153C32.7696 188.08 32.3742 187.289 31.5834 186.78C30.8208 186.272 29.7334 186.018 28.3212 186.018C27.2197 186.018 26.1464 186.159 25.1014 186.441C24.0564 186.696 23.1243 187.02 22.3053 187.416C21.9946 187.19 21.7263 186.893 21.5003 186.526C21.3026 186.131 21.2038 185.707 21.2038 185.255C21.2038 184.69 21.3308 184.238 21.585 183.899C21.8675 183.532 22.3053 183.207 22.8984 182.925C23.7175 182.586 24.6495 182.332 25.6945 182.162C26.7396 181.993 27.7987 181.908 28.872 181.908ZM48.8882 202.54C48.6622 202.597 48.3233 202.668 47.8714 202.752C47.4477 202.837 46.9817 202.879 46.4733 202.879C45.4565 202.879 44.7081 202.696 44.2279 202.329C43.776 201.961 43.5501 201.312 43.5501 200.38V175.045C43.776 174.96 44.1008 174.89 44.5245 174.833C44.9764 174.748 45.4566 174.706 45.9649 174.706C46.9817 174.706 47.7161 174.89 48.168 175.257C48.6481 175.624 48.8882 176.274 48.8882 177.206V202.54ZM62.4294 199.151C63.2484 199.151 63.9969 199.081 64.6748 198.939C65.3526 198.77 65.8469 198.572 66.1576 198.346V193.644L62.0481 194.025C60.9183 194.138 60.0569 194.392 59.4638 194.787C58.8706 195.155 58.5741 195.748 58.5741 196.567C58.5741 197.386 58.8706 198.021 59.4638 198.473C60.0851 198.925 61.0737 199.151 62.4294 199.151ZM62.2599 181.908C65.0278 181.908 67.2308 182.501 68.869 183.688C70.5354 184.874 71.3686 186.71 71.3686 189.195V198.982C71.3686 199.66 71.1991 200.196 70.8602 200.592C70.5212 200.987 70.0976 201.34 69.5892 201.651C68.7984 202.131 67.7957 202.512 66.5812 202.795C65.3667 203.077 63.9828 203.218 62.4294 203.218C59.605 203.218 57.3737 202.682 55.7356 201.608C54.1257 200.507 53.3207 198.869 53.3207 196.694C53.3207 194.802 53.9138 193.361 55.1001 192.373C56.3146 191.356 58.0657 190.734 60.3534 190.509L66.1576 189.915V189.153C66.1576 188.08 65.7621 187.289 64.9713 186.78C64.2087 186.272 63.1213 186.018 61.7091 186.018C60.6076 186.018 59.5344 186.159 58.4893 186.441C57.4443 186.696 56.5123 187.02 55.6932 187.416C55.3825 187.19 55.1142 186.893 54.8882 186.526C54.6905 186.131 54.5917 185.707 54.5917 185.255C54.5917 184.69 54.7188 184.238 54.973 183.899C55.2554 183.532 55.6932 183.207 56.2863 182.925C57.1054 182.586 58.0374 182.332 59.0825 182.162C60.1275 181.993 61.1866 181.908 62.2599 181.908ZM106.509 202.54C106.283 202.597 105.945 202.668 105.493 202.752C105.069 202.837 104.603 202.879 104.095 202.879C103.078 202.879 102.329 202.696 101.849 202.329C101.397 201.961 101.171 201.312 101.171 200.38V189.365C101.171 188.235 100.861 187.416 100.239 186.907C99.6179 186.399 98.7988 186.145 97.782 186.145C97.1042 186.145 96.4404 186.272 95.7908 186.526C95.1695 186.78 94.6187 187.119 94.1385 187.543C94.2233 187.938 94.2656 188.334 94.2656 188.729V202.54C94.0397 202.597 93.7008 202.668 93.2489 202.752C92.8252 202.837 92.3592 202.879 91.8508 202.879C90.834 202.879 90.0856 202.696 89.6054 202.329C89.1535 201.961 88.9276 201.312 88.9276 200.38V189.365C88.9276 188.235 88.6028 187.416 87.9531 186.907C87.3035 186.399 86.4703 186.145 85.4536 186.145C84.7475 186.145 84.0978 186.258 83.5047 186.484C82.9116 186.71 82.4173 186.936 82.0219 187.162V202.54C81.7677 202.597 81.4288 202.668 81.0051 202.752C80.5815 202.837 80.1013 202.879 79.5647 202.879C78.5762 202.879 77.8418 202.696 77.3617 202.329C76.8815 201.961 76.6415 201.312 76.6415 200.38V186.78C76.6415 186.131 76.7827 185.594 77.0651 185.17C77.3475 184.719 77.7853 184.295 78.3785 183.899C79.2258 183.335 80.299 182.869 81.5983 182.501C82.8975 182.106 84.2391 181.908 85.623 181.908C88.1932 181.908 90.2833 182.6 91.8932 183.984C92.7122 183.391 93.6443 182.897 94.6893 182.501C95.7626 182.106 97.0194 181.908 98.4599 181.908C99.5614 181.908 100.606 182.049 101.595 182.332C102.583 182.586 103.431 183.01 104.137 183.603C104.871 184.196 105.45 184.959 105.874 185.891C106.298 186.794 106.509 187.882 106.509 189.153V202.54Z" fill="white"/>
<path d="M142.67 202.545C142.441 202.601 142.098 202.671 141.64 202.755C141.211 202.84 140.739 202.882 140.224 202.882C139.195 202.882 138.436 202.699 137.95 202.334C137.492 201.969 137.264 201.324 137.264 200.397V189.449C137.264 188.326 136.949 187.512 136.32 187.007C135.69 186.502 134.861 186.249 133.831 186.249C133.144 186.249 132.472 186.375 131.814 186.628C131.185 186.881 130.627 187.217 130.141 187.638C130.227 188.032 130.27 188.425 130.27 188.818V202.545C130.041 202.601 129.697 202.671 129.24 202.755C128.811 202.84 128.339 202.882 127.824 202.882C126.794 202.882 126.036 202.699 125.55 202.334C125.092 201.969 124.863 201.324 124.863 200.397V189.449C124.863 188.326 124.534 187.512 123.876 187.007C123.218 186.502 122.374 186.249 121.345 186.249C120.629 186.249 119.971 186.361 119.371 186.586C118.77 186.81 118.269 187.035 117.869 187.26V202.545C117.612 202.601 117.269 202.671 116.84 202.755C116.41 202.84 115.924 202.882 115.38 202.882C114.379 202.882 113.636 202.699 113.149 202.334C112.663 201.969 112.42 201.324 112.42 200.397V186.881C112.42 186.235 112.563 185.702 112.849 185.28C113.135 184.831 113.578 184.41 114.179 184.017C115.037 183.456 116.124 182.993 117.44 182.628C118.756 182.235 120.114 182.038 121.516 182.038C124.119 182.038 126.236 182.726 127.867 184.101C128.696 183.512 129.64 183.021 130.699 182.628C131.786 182.235 133.059 182.038 134.517 182.038C135.633 182.038 136.692 182.178 137.693 182.459C138.694 182.712 139.552 183.133 140.267 183.722C141.011 184.312 141.597 185.07 142.026 185.996C142.456 186.895 142.67 187.975 142.67 189.239V202.545ZM167 198.671C167 199.317 166.886 199.864 166.657 200.313C166.428 200.734 166.014 201.113 165.413 201.45C164.583 201.955 163.525 202.376 162.238 202.713C160.979 203.05 159.534 203.219 157.904 203.219C156.416 203.219 155.072 203.05 153.87 202.713C152.669 202.404 151.639 201.913 150.781 201.239C149.923 200.566 149.265 199.71 148.807 198.671C148.35 197.632 148.121 196.397 148.121 194.965V182.712C148.35 182.628 148.678 182.557 149.108 182.501C149.565 182.417 150.066 182.375 150.609 182.375C151.611 182.375 152.354 182.557 152.841 182.922C153.327 183.259 153.57 183.905 153.57 184.859V194.881C153.57 196.341 153.942 197.394 154.686 198.039C155.458 198.657 156.545 198.966 157.947 198.966C158.834 198.966 159.577 198.881 160.178 198.713C160.807 198.545 161.279 198.362 161.594 198.166V182.712C161.823 182.628 162.152 182.557 162.581 182.501C163.039 182.417 163.525 182.375 164.04 182.375C165.07 182.375 165.813 182.557 166.271 182.922C166.757 183.259 167 183.905 167 184.859V198.671Z" fill="#FFCD2D"/>
<path d="M113.295 0.78125H55.1305C31.0378 0.78125 11.5068 20.3122 11.5068 44.4049V102.57C11.5068 126.663 31.0378 146.194 55.1305 146.194H113.295C137.388 146.194 156.919 126.663 156.919 102.57V44.4049C156.919 20.3122 137.388 0.78125 113.295 0.78125Z" fill="white"/>
<path d="M130.953 21.5537L73.0845 81.7884C65.0097 90.193 39.4743 72.0185 62.3527 48.2049C80.6551 29.1539 115.713 22.4995 130.953 21.5537Z" fill="#40A083"/>
<path d="M37.4736 125.42L95.3424 65.1856C103.417 56.7806 128.952 74.9552 106.074 98.7691C87.7715 117.82 52.7144 124.474 37.4736 125.42Z" fill="#40A083"/>
</svg>
