<svg width="50" height="51" viewBox="0 0 50 51" fill="none" xmlns="http://www.w3.org/2000/svg">
<circle cx="25" cy="25.5" r="25" fill="#40A083" fill-opacity="0.1"/>
<path d="M13.0004 46.319H41.0864C42.4216 46.319 43.3908 45.0486 43.038 43.7609L32.6901 5.98885C32.4492 5.10961 31.6501 4.5 30.7385 4.5H2.65242C1.31721 4.5 0.348038 5.7704 0.700831 7.05816L11.0488 44.8302C11.2897 45.7094 12.0888 46.319 13.0004 46.319Z" fill="#1C737A"/>
<path d="M14.5201 44.2961H41.0973C42.4293 44.2961 43.3979 43.0314 43.0509 41.7454L33.7675 7.34589C33.5292 6.46297 32.7284 5.84961 31.8139 5.84961H5.2367C3.90469 5.84961 2.93604 7.11433 3.28309 8.40034L12.5665 42.7998C12.8048 43.6828 13.6056 44.2961 14.5201 44.2961Z" fill="#B9D180" stroke="#40A083" stroke-width="0.6745"/>
<path d="M16.3693 41.9354H39.9059C41.2482 41.9354 42.2184 40.6524 41.853 39.3609L32.7871 7.32216C32.5406 6.451 31.7454 5.84961 30.84 5.84961H7.30346C5.96123 5.84961 4.99095 7.13254 5.35641 8.42406L14.4223 40.4628C14.6688 41.334 15.464 41.9354 16.3693 41.9354Z" fill="#E7FCB6" stroke="#40A083" stroke-width="1.349"/>
<rect x="13.4893" y="20.6885" width="18.886" height="2.698" rx="1.349" fill="#1C737A"/>
<rect x="14.8389" y="26.084" width="18.886" height="2.698" rx="1.349" fill="#1C737A"/>
<path d="M16.8613 32.8295C16.8613 32.0844 17.4653 31.4805 18.2103 31.4805H24.9553C25.7004 31.4805 26.3043 32.0844 26.3043 32.8295C26.3043 33.5745 25.7004 34.1785 24.9553 34.1785H18.2103C17.4653 34.1785 16.8613 33.5745 16.8613 32.8295Z" fill="#1C737A"/>
<path d="M16.6661 16.305H45.1909C45.8391 16.305 46.1142 15.4799 45.5956 15.0909L32.5553 5.31068C32.4385 5.22312 32.2965 5.17578 32.1506 5.17578H3.31681C2.66477 5.17578 2.3922 6.00903 2.91818 6.39438L16.2675 16.1746C16.3831 16.2594 16.5228 16.305 16.6661 16.305Z" fill="#40A083" stroke="#1C737A" stroke-width="0.6745"/>
<path d="M16.6661 16.305H45.1909C45.8391 16.305 46.1142 15.4799 45.5956 15.0909L32.5553 5.31068C32.4385 5.22312 32.2965 5.17578 32.1506 5.17578H3.31681C2.66477 5.17578 2.3922 6.00903 2.91818 6.39438L16.2675 16.1746C16.3831 16.2594 16.5228 16.305 16.6661 16.305Z" fill="#40A083" stroke="#1C737A" stroke-width="0.6745"/>
<path d="M16.3464 15.836L3.70935 6.52445L3.13832 6.09617C2.88911 5.90926 3.0213 5.5127 3.33281 5.5127C3.35891 5.5127 3.38491 5.51585 3.41026 5.52208L40.462 14.638C41.2358 14.8284 41.0977 15.9674 40.3008 15.9674H16.7465C16.6025 15.9674 16.4623 15.9214 16.3464 15.836Z" fill="black" fill-opacity="0.1"/>
<path d="M42.7108 10.0214C42.9703 9.75274 44.0729 10.0208 44.0729 10.0208C44.0729 10.0208 45.1922 10.2354 46.2039 11.2471C47.2157 12.2589 47.5528 13.6075 47.5528 13.6075C47.5528 13.6075 47.8442 14.4515 47.5847 14.7206L30.8697 31.4651C30.7866 31.5512 30.6804 31.6143 30.5653 31.647L25.4065 33.0959C24.9089 33.2352 24.4453 32.7871 24.5659 32.2848L25.8248 27.0771C25.8531 26.9601 25.912 26.8528 25.9955 26.7662L42.7108 10.0214Z" fill="#FFCD2D"/>
<path d="M47.215 12.9324L47.566 13.7584C47.5523 14.2814 47.8431 14.4465 47.5836 14.7157L30.8686 31.46C30.7855 31.5461 30.6793 31.6093 30.5642 31.6419L25.4054 33.0908C24.9078 33.2301 24.4442 32.7821 24.5648 32.2798C24.5648 32.2798 29.0401 30.5929 29.9847 29.8905C30.9294 29.1881 47.215 12.9324 47.215 12.9324Z" fill="#C2A137"/>
</svg>
